<svg xmlns="http://www.w3.org/2000/svg" version="1.1" xmlns:xlink="http://www.w3.org/1999/xlink" xmlns:svgjs="http://svgjs.dev/svgjs" width="128" height="128" viewBox="0 0 128 128"><g transform="matrix(0.8046875,0,0,0.8046875,12.612792253521128,12.612792253521128)"><svg viewBox="0 0 142 142" data-background-color="#ffffff" preserveAspectRatio="xMidYMid meet" height="128" width="128" xmlns="http://www.w3.org/2000/svg" xmlns:xlink="http://www.w3.org/1999/xlink"><g id="tight-bounds" transform="matrix(1,0,0,1,-0.15550000000000352,-0.15550000000000352)"><svg viewBox="0 0 142.31066447748248 142.31066447748248" height="142.31066447748248" width="142.31066447748248"><g><svg></svg></g><g><svg viewBox="0 0 142.31066447748248 142.31066447748248" height="142.31066447748248" width="142.31066447748248"><g><path d="M0 71.155c0-39.298 31.857-71.155 71.155-71.155 39.298 0 71.155 31.857 71.156 71.155 0 39.298-31.857 71.155-71.156 71.156-39.298 0-71.155-31.857-71.155-71.156zM71.155 134.886c35.197 0 63.731-28.533 63.731-63.731 0-35.197-28.533-63.731-63.731-63.73-35.197 0-63.731 28.533-63.73 63.73 0 35.197 28.533 63.731 63.73 63.731z" data-fill-palette-color="tertiary" fill="#7a26c1" stroke="transparent"></path><ellipse rx="68.30911894919159" ry="68.30911894919159" cx="71.15533223874124" cy="71.15533223874124" fill="#7a26c1" stroke="transparent" stroke-width="0" fill-opacity="1" data-fill-palette-color="tertiary"></ellipse></g><g transform="matrix(1,0,0,1,38.24512829678695,29.989108276746514)"><svg viewBox="0 0 65.82040788390857 82.33244792398945" height="82.33244792398945" width="65.82040788390857"><g><svg viewBox="0 0 65.82040788390857 82.33244792398945" height="82.33244792398945" width="65.82040788390857"><g><svg viewBox="0 0 65.82040788390857 82.33244792398945" height="82.33244792398945" width="65.82040788390857"><g id="textblocktransform"><svg viewBox="0 0 65.82040788390857 82.33244792398945" height="82.33244792398945" width="65.82040788390857" id="textblock"><g><svg viewBox="0 0 65.82040788390857 82.33244792398945" height="82.33244792398945" width="65.82040788390857"><g transform="matrix(1,0,0,1,0,0)"><svg width="65.82040788390857" viewBox="2.5 -35.45 28.9 36.150000000000006" height="82.33244792398945" data-palette-color="#ffffff"><path d="M19.8 0.7L19.8 0.7Q11.35 0.7 6.93-4 2.5-8.7 2.5-17.35L2.5-17.35Q2.5-21.65 3.85-25.03 5.2-28.4 7.55-30.73 9.9-33.05 13.15-34.25 16.4-35.45 20.2-35.45L20.2-35.45Q22.4-35.45 24.2-35.13 26-34.8 27.35-34.38 28.7-33.95 29.6-33.5 30.5-33.05 30.9-32.8L30.9-32.8 28.65-26.5Q27.05-27.35 24.93-27.95 22.8-28.55 20.1-28.55L20.1-28.55Q18.3-28.55 16.57-27.95 14.85-27.35 13.53-26.03 12.2-24.7 11.4-22.6 10.6-20.5 10.6-17.5L10.6-17.5Q10.6-15.1 11.13-13.03 11.65-10.95 12.83-9.45 14-7.95 15.9-7.08 17.8-6.2 20.5-6.2L20.5-6.2Q22.2-6.2 23.55-6.4 24.9-6.6 25.95-6.88 27-7.15 27.8-7.5 28.6-7.85 29.25-8.15L29.25-8.15 31.4-1.9Q29.75-0.9 26.75-0.1 23.75 0.7 19.8 0.7Z" opacity="1" transform="matrix(1,0,0,1,0,0)" fill="#ffffff" class="undefined-text-0" data-fill-palette-color="quaternary" id="text-0"></path></svg></g></svg></g></svg></g></svg></g><g></g></svg></g></svg></g></svg></g><defs></defs></svg><rect width="142.31066447748248" height="142.31066447748248" fill="none" stroke="none" visibility="hidden"></rect></g></svg></g></svg>